M48
;Layer_Color=9474304
;FILE_FORMAT=2:5
INCH,LZ
;TYPE=PLATED
T1F00S00C0.01000
T2F00S00C0.01500
T3F00S00C0.02362
T4F00S00C0.03543
T5F00S00C0.04000
T6F00S00C0.05000
T7F00S00C0.05787
%
T01
X03186Y0198
X03301Y02066
T02
X03139Y01643
X03225Y0177
X03337Y01819
X03393Y01789
X03563Y01932
X03514Y02085
X03183Y02306
X0391696Y0175
X040235Y017225
X024335Y017415
X02378Y01741
X02159Y01728
X0206Y01741
X01912Y01782
X01928Y01875
X02133Y02242
X0239328Y023066
X02595Y02273
X02594Y02103
X02562Y02037
X02375Y02035
T03
X02046Y01873
Y01923
X02096
Y01873
X02146
Y01923
T04
X0187Y01725
Y01825
Y01925
Y02025
Y02125
Y02225
T05
X03452Y01662
X03433Y02046
T06
X0269311Y0171772
T07
X0421142Y019685
X0271654
M30
