M48
;Layer_Color=9474304
;FILE_FORMAT=2:5
INCH,LZ
;TYPE=PLATED
T1F00S00C0.01000
T2F00S00C0.01500
T3F00S00C0.02362
T4F00S00C0.03543
T5F00S00C0.04000
T6F00S00C0.05000
T7F00S00C0.05787
%
T01
X02371Y01405
X02486Y01491
T02
X02324Y01068
X0241Y01195
X02522Y01244
X02578Y01214
X02748Y01357
X02699Y0151
X02368Y01731
X0310196Y01175
X032085Y011475
X016185Y011665
X01563Y01166
X01344Y01153
X01245Y01166
X01097Y01207
X01113Y013
X01318Y01667
X0157828Y017316
X0178Y01698
X01779Y01528
X01747Y01462
X0156Y0146
T03
X01231Y01298
Y01348
X01281
Y01298
X01331
Y01348
T04
X01055Y0115
Y0125
Y0135
Y0145
Y0155
Y0165
T05
X02637Y01087
X02618Y01471
T06
X0187811Y0114272
T07
X0339642Y013935
X0190154
M30
