G04 Layer_Color=32768*
%FSLAX25Y25*%
%MOIN*%
G70*
G01*
G75*
%ADD45C,0.00394*%
%ADD75C,0.00197*%
D45*
X244100Y170730D02*
Y174470D01*
X242230Y172600D02*
X245970D01*
X239376Y170435D02*
X248824D01*
X239376Y174765D02*
X248824D01*
Y170435D02*
Y174765D01*
X239376Y170435D02*
Y174765D01*
X255000Y170630D02*
Y174370D01*
X253130Y172500D02*
X256870D01*
X250276Y170335D02*
X259724D01*
X250276Y174665D02*
X259724D01*
Y170335D02*
Y174665D01*
X250276Y170335D02*
Y174665D01*
X159000Y139200D02*
X169000D01*
X164000Y134200D02*
Y144200D01*
X125000Y155532D02*
Y159469D01*
X123031Y157500D02*
X126969D01*
X152419Y171884D02*
X156750D01*
X152419Y162435D02*
X156750D01*
Y171884D01*
X152419Y162435D02*
Y171884D01*
X154584Y165290D02*
Y169030D01*
X152714Y167160D02*
X156454D01*
X252335Y109576D02*
X256665D01*
X252335Y119024D02*
X256665D01*
X252335Y109576D02*
Y119024D01*
X256665Y109576D02*
Y119024D01*
X254500Y112430D02*
Y116170D01*
X252630Y114300D02*
X256370D01*
X226035Y119124D02*
X230365D01*
X226035Y109676D02*
X230365D01*
Y119124D01*
X226035Y109676D02*
Y119124D01*
X228200Y112530D02*
Y116270D01*
X226330Y114400D02*
X230070D01*
X251424Y105035D02*
Y109365D01*
X241975Y105035D02*
Y109365D01*
Y105035D02*
X251424D01*
X241975Y109365D02*
X251424D01*
X244830Y107200D02*
X248570D01*
X246700Y105330D02*
Y109070D01*
X167376Y173535D02*
Y177865D01*
X176824Y173535D02*
Y177865D01*
X167376D02*
X176824D01*
X167376Y173535D02*
X176824D01*
X170230Y175700D02*
X173970D01*
X172100Y173830D02*
Y177570D01*
X165184Y164191D02*
Y168128D01*
X163216Y166160D02*
X167153D01*
X279124Y154635D02*
Y158966D01*
X269675Y154635D02*
Y158966D01*
Y154635D02*
X279124D01*
X269675Y158966D02*
X279124D01*
X272530Y156800D02*
X276270D01*
X274400Y154930D02*
Y158670D01*
X179176Y162535D02*
Y166865D01*
X188625Y162535D02*
Y166865D01*
X179176D02*
X188625D01*
X179176Y162535D02*
X188625D01*
X182030Y164700D02*
X185770D01*
X183900Y162830D02*
Y166570D01*
X179175Y167635D02*
Y171965D01*
X188624Y167635D02*
Y171965D01*
X179175D02*
X188624D01*
X179175Y167635D02*
X188624D01*
X182030Y169800D02*
X185770D01*
X183900Y167930D02*
Y171670D01*
X279124Y160035D02*
Y164365D01*
X269675Y160035D02*
Y164365D01*
Y160035D02*
X279124D01*
X269675Y164365D02*
X279124D01*
X272530Y162200D02*
X276270D01*
X274400Y160330D02*
Y164070D01*
X274935Y106576D02*
X279265D01*
X274935Y116024D02*
X279265D01*
X274935Y106576D02*
Y116024D01*
X279265Y106576D02*
Y116024D01*
X277100Y109430D02*
Y113170D01*
X275230Y111300D02*
X278970D01*
X269435Y106576D02*
X273765D01*
X269435Y116024D02*
X273765D01*
X269435Y106576D02*
Y116024D01*
X273765Y106576D02*
Y116024D01*
X271600Y109430D02*
Y113170D01*
X269730Y111300D02*
X273470D01*
X198100Y108400D02*
Y118400D01*
X193100Y113400D02*
X203100D01*
X277924Y123735D02*
Y128065D01*
X268476Y123735D02*
Y128065D01*
Y123735D02*
X277924D01*
X268476Y128065D02*
X277924D01*
X271330Y125900D02*
X275070D01*
X273200Y124030D02*
Y127770D01*
X129724Y168435D02*
Y172765D01*
X120276Y168435D02*
Y172765D01*
Y168435D02*
X129724D01*
X120276Y172765D02*
X129724D01*
X123130Y170600D02*
X126870D01*
X125000Y168730D02*
Y172470D01*
X260435Y113976D02*
X264765D01*
X260435Y123424D02*
X264765D01*
X260435Y113976D02*
Y123424D01*
X264765Y113976D02*
Y123424D01*
X262600Y116830D02*
Y120570D01*
X260730Y118700D02*
X264470D01*
X219735Y119224D02*
X224065D01*
X219735Y109776D02*
X224065D01*
Y119224D01*
X219735Y109776D02*
Y119224D01*
X221900Y112630D02*
Y116370D01*
X220030Y114500D02*
X223770D01*
X277924Y129135D02*
Y133465D01*
X268476Y129135D02*
Y133465D01*
Y129135D02*
X277924D01*
X268476Y133465D02*
X277924D01*
X271330Y131300D02*
X275070D01*
X273200Y129430D02*
Y133170D01*
X241000Y117131D02*
Y121069D01*
X239032Y119100D02*
X242969D01*
X225850Y153288D02*
X232150D01*
X225850Y164312D02*
X232150D01*
X225850Y153288D02*
Y164312D01*
X232150Y153288D02*
Y164312D01*
X229000Y156832D02*
Y160768D01*
X227031Y158800D02*
X230968D01*
X250150Y150888D02*
X256450D01*
X250150Y161912D02*
X256450D01*
X250150Y150888D02*
Y161912D01*
X256450Y150888D02*
Y161912D01*
X253300Y154431D02*
Y158369D01*
X251331Y156400D02*
X255269D01*
X241200Y154931D02*
Y158869D01*
X239231Y156900D02*
X243168D01*
X230400Y138230D02*
Y141970D01*
X228530Y140100D02*
X232270D01*
X225676Y142265D02*
X235124D01*
X225676Y137935D02*
X235124D01*
X225676D02*
Y142265D01*
X235124Y137935D02*
Y142265D01*
X263130Y168200D02*
X266870D01*
X265000Y166330D02*
Y170070D01*
X267165Y163476D02*
Y172924D01*
X262835Y163476D02*
Y172924D01*
X267165D01*
X262835Y163476D02*
X267165D01*
D75*
X115354Y167146D02*
X134646D01*
X115354Y147854D02*
X134646D01*
X115354D02*
Y167146D01*
X134646Y147854D02*
Y167146D01*
X157507Y158483D02*
X172861D01*
X157507Y173837D02*
X172861D01*
X157507Y158483D02*
Y173837D01*
X172861Y158483D02*
Y173837D01*
X231354Y128746D02*
X250646D01*
X231354Y109454D02*
X250646D01*
X231354D02*
Y128746D01*
X250646Y109454D02*
Y128746D01*
X233129Y144695D02*
X249271D01*
X233129Y169105D02*
X249271D01*
X233129Y144695D02*
Y169105D01*
X249271Y144695D02*
Y169105D01*
M02*
