G04 Layer_Physical_Order=1*
G04 Layer_Color=255*
%FSLAX25Y25*%
%MOIN*%
G70*
G01*
G75*
%ADD10R,0.02756X0.03543*%
%ADD11C,0.06000*%
%ADD12O,0.03937X0.01181*%
%ADD13R,0.06000X0.06000*%
%ADD14R,0.05118X0.06102*%
%ADD15R,0.05906X0.09449*%
%ADD16O,0.02362X0.01575*%
%ADD17R,0.03543X0.03150*%
%ADD18R,0.03150X0.03543*%
%ADD19O,0.01181X0.03150*%
%ADD20O,0.03150X0.01181*%
%ADD21R,0.06102X0.05118*%
%ADD22R,0.03543X0.02756*%
%ADD23O,0.01181X0.03937*%
%ADD24R,0.05512X0.04331*%
%ADD25R,0.02362X0.08465*%
%ADD26R,0.09449X0.05906*%
%ADD27C,0.01000*%
%ADD28C,0.01500*%
%ADD29C,0.00800*%
%ADD30C,0.02000*%
%ADD31C,0.05000*%
%ADD32C,0.11811*%
%ADD33C,0.07874*%
%ADD34R,0.05906X0.05906*%
%ADD35C,0.05906*%
%ADD36C,0.03937*%
%ADD37R,0.03937X0.03937*%
%ADD38C,0.02500*%
%ADD39C,0.10000*%
%ADD40C,0.03000*%
%ADD41C,0.02000*%
G36*
X209380Y120675D02*
X205307Y116602D01*
X205064Y116238D01*
X204978Y115809D01*
X204978Y115809D01*
Y103100D01*
X204978Y103100D01*
X205064Y102671D01*
X205307Y102307D01*
X207188Y100426D01*
X206996Y99964D01*
X150396Y99958D01*
X150042Y100311D01*
Y101778D01*
X173700D01*
X173700Y101778D01*
X174129Y101864D01*
X174493Y102107D01*
X178337Y105951D01*
X178799Y105760D01*
Y101383D01*
X186101D01*
Y106687D01*
X186542Y106922D01*
X186630Y106864D01*
X187059Y106778D01*
X187059Y106778D01*
X193000D01*
X193000Y106778D01*
X193429Y106864D01*
X193793Y107107D01*
X207823Y121137D01*
X209189D01*
X209380Y120675D01*
D02*
G37*
G36*
X234330Y130017D02*
X230007Y125693D01*
X229764Y125329D01*
X229678Y124900D01*
X229679Y124900D01*
Y120700D01*
X229678Y120700D01*
X229764Y120271D01*
X230007Y119907D01*
X230121Y119793D01*
X229930Y119331D01*
X225829D01*
Y116370D01*
X225180Y115722D01*
X224272D01*
Y119431D01*
X219529D01*
X219529Y119431D01*
Y119431D01*
X219412Y119382D01*
X217401Y121393D01*
Y125417D01*
X210098D01*
Y123380D01*
X207358D01*
X207358Y123380D01*
X206929Y123294D01*
X206565Y123051D01*
X206565Y123051D01*
X192535Y109022D01*
X187595D01*
X187330Y109446D01*
X187475Y109740D01*
X187811Y109695D01*
X188995Y109851D01*
X190099Y110309D01*
X191047Y111036D01*
X191774Y111984D01*
X192231Y113087D01*
X192387Y114272D01*
X192231Y115456D01*
X191774Y116560D01*
X191047Y117507D01*
X190099Y118235D01*
X188995Y118692D01*
X187811Y118848D01*
X186627Y118692D01*
X185523Y118235D01*
X184575Y117507D01*
X183848Y116560D01*
X183391Y115456D01*
X183235Y114272D01*
X183391Y113087D01*
X183848Y111984D01*
X184575Y111036D01*
X185523Y110309D01*
X185321Y109822D01*
X179443D01*
X179014Y109736D01*
X178650Y109493D01*
X178650Y109493D01*
X177506Y108350D01*
X177391Y108177D01*
X173235Y104022D01*
X170661D01*
X170470Y104483D01*
X178993Y113007D01*
X178993Y113007D01*
X179236Y113371D01*
X179322Y113800D01*
Y119099D01*
X186101D01*
Y125417D01*
X180683D01*
X180623Y125563D01*
X180901Y125978D01*
X195188D01*
X195188Y125978D01*
X195617Y126064D01*
X195981Y126307D01*
X200153Y130478D01*
X234139D01*
X234330Y130017D01*
D02*
G37*
G36*
X301102Y111712D02*
X301070Y111213D01*
X300881Y111067D01*
X300304Y110315D01*
X299941Y109440D01*
X299817Y108500D01*
X299941Y107560D01*
X300304Y106684D01*
X300881Y105932D01*
X301632Y105355D01*
X302462Y105012D01*
X302364Y104522D01*
X296658D01*
X296561Y105012D01*
X297390Y105355D01*
X298142Y105932D01*
X298719Y106684D01*
X299081Y107560D01*
X299205Y108500D01*
X299081Y109440D01*
X298719Y110315D01*
X298142Y111067D01*
X297390Y111644D01*
X296696Y111932D01*
Y113326D01*
X296610Y113755D01*
X296367Y114119D01*
X296367Y114119D01*
X291370Y119116D01*
X291561Y119578D01*
X293235D01*
X301102Y111712D01*
D02*
G37*
G36*
X177078Y117239D02*
Y114265D01*
X168735Y105922D01*
X165761D01*
X165570Y106384D01*
X176617Y117430D01*
X177078Y117239D01*
D02*
G37*
G36*
X181478Y154635D02*
Y141661D01*
X181017Y141470D01*
X176536Y145950D01*
X176586Y146200D01*
X176443Y146922D01*
X176034Y147534D01*
X175422Y147943D01*
X174700Y148086D01*
X173978Y147943D01*
X173366Y147534D01*
X172957Y146922D01*
X172814Y146200D01*
X172957Y145478D01*
X173366Y144866D01*
X173978Y144457D01*
X174700Y144314D01*
X174950Y144364D01*
X179878Y139435D01*
Y135802D01*
X174198Y130122D01*
X170000D01*
X170000Y130122D01*
X169571Y130036D01*
X169207Y129793D01*
X169207Y129793D01*
X166907Y127493D01*
X166664Y127129D01*
X166578Y126700D01*
X166578Y126700D01*
Y113965D01*
X162235Y109622D01*
X150042D01*
Y111378D01*
X157800D01*
X157800Y111378D01*
X158229Y111464D01*
X158593Y111707D01*
X161683Y114797D01*
X161850Y114764D01*
X162572Y114907D01*
X163184Y115316D01*
X163593Y115928D01*
X163736Y116650D01*
X163703Y116817D01*
X164593Y117707D01*
X164593Y117707D01*
X164836Y118071D01*
X164836Y118071D01*
X164836Y118071D01*
X164922Y118500D01*
X164922Y118500D01*
Y156735D01*
X164993Y156807D01*
X164993Y156807D01*
X165236Y157171D01*
X165322Y157600D01*
X165322Y157600D01*
Y159588D01*
X165708Y159905D01*
X166169Y159814D01*
X166789Y159937D01*
X167315Y160289D01*
X167437Y160471D01*
X167673Y160314D01*
X168137Y160222D01*
X168602Y160314D01*
X168995Y160577D01*
X169258Y160971D01*
X169324Y161298D01*
X174816D01*
X181478Y154635D01*
D02*
G37*
G36*
X169699Y126460D02*
Y119899D01*
X175260D01*
X175451Y119437D01*
X169259Y113245D01*
X168818Y113480D01*
X168822Y113500D01*
X168822Y113500D01*
Y126235D01*
X169237Y126651D01*
X169699Y126460D01*
D02*
G37*
G36*
X260621Y124093D02*
X260430Y123631D01*
X260228D01*
Y119675D01*
X264971D01*
X264972Y119675D01*
Y119675D01*
X265019Y119695D01*
X266807Y117907D01*
X266807Y117907D01*
X267171Y117664D01*
X267171Y117664D01*
X267171Y117664D01*
D01*
X267171Y117664D01*
X267171Y117664D01*
X267600Y117578D01*
X267600Y117578D01*
X289735D01*
X294453Y112861D01*
Y111932D01*
X293759Y111644D01*
X293006Y111067D01*
X292429Y110315D01*
X292067Y109440D01*
X291943Y108500D01*
X292067Y107560D01*
X292429Y106684D01*
X293006Y105932D01*
X293759Y105355D01*
X294587Y105012D01*
X294490Y104522D01*
X288784D01*
X288687Y105012D01*
X289516Y105355D01*
X290268Y105932D01*
X290845Y106684D01*
X291207Y107560D01*
X291331Y108500D01*
X291207Y109440D01*
X290845Y110315D01*
X290268Y111067D01*
X289516Y111644D01*
X288640Y112007D01*
X287700Y112131D01*
X286760Y112007D01*
X286083Y111727D01*
X279872D01*
Y113056D01*
X277100D01*
Y115056D01*
X279872D01*
Y116631D01*
X274372D01*
D01*
D01*
X274372Y116631D01*
X274328D01*
Y116631D01*
X268828D01*
Y115056D01*
X271600D01*
Y113056D01*
X268828D01*
Y111993D01*
X268355Y111833D01*
X267694Y112694D01*
X266524Y113592D01*
X265967Y113823D01*
X264972Y114818D01*
Y117725D01*
X260228D01*
Y113769D01*
X260330D01*
X260490Y113296D01*
X259706Y112694D01*
X259606Y112564D01*
X256872D01*
Y113719D01*
X252128D01*
Y110614D01*
X251085Y109572D01*
X247281D01*
Y104828D01*
X251631D01*
Y107233D01*
X253767Y109369D01*
X256872D01*
Y110525D01*
X257913D01*
X258242Y110149D01*
X258052Y108700D01*
X258244Y107238D01*
X258808Y105876D01*
X259706Y104706D01*
X260372Y104195D01*
X260211Y103722D01*
X219700D01*
X219271Y103636D01*
X218907Y103393D01*
X218907Y103393D01*
X217863Y102349D01*
X217401Y102540D01*
Y107701D01*
X214871D01*
Y109185D01*
X218667Y112980D01*
X219128Y112789D01*
Y112547D01*
X221900D01*
Y111547D01*
X222900D01*
Y109169D01*
X224672D01*
Y113478D01*
X225429D01*
Y109069D01*
X227200D01*
Y111644D01*
X228200D01*
Y112644D01*
X230972D01*
Y114219D01*
Y114219D01*
X227502D01*
X227359Y114565D01*
X227637Y114981D01*
X230572D01*
Y116034D01*
X232183D01*
X232792Y115628D01*
X232699Y115163D01*
X232792Y114699D01*
X233055Y114305D01*
X233449Y114041D01*
X233913Y113949D01*
X236669D01*
X237023Y114020D01*
X237410Y113702D01*
Y112013D01*
X237533Y111393D01*
X237885Y110867D01*
X238032Y110769D01*
Y113391D01*
X239786D01*
Y112013D01*
X239878Y111549D01*
X240032Y111320D01*
Y110769D01*
X240178Y110867D01*
X240300Y111049D01*
X240535Y110892D01*
X241000Y110800D01*
X241464Y110892D01*
X241858Y111155D01*
X242110D01*
X242504Y110892D01*
X242969Y110800D01*
X243433Y110892D01*
X243827Y111155D01*
X244090Y111549D01*
X244182Y112013D01*
Y113487D01*
X244623Y113723D01*
X244710Y113665D01*
X245331Y113541D01*
X245709D01*
Y115163D01*
X247709D01*
Y113541D01*
X248087D01*
X248707Y113665D01*
X249233Y114016D01*
X249585Y114542D01*
X249708Y115163D01*
X249617Y115623D01*
X249934Y116010D01*
X252128D01*
Y114881D01*
X256872D01*
Y119231D01*
X256872Y119231D01*
Y119231D01*
X257078Y119657D01*
X257800Y119514D01*
X258522Y119657D01*
X259134Y120066D01*
X259543Y120678D01*
X259686Y121400D01*
X259543Y122122D01*
X259134Y122734D01*
X258522Y123143D01*
X257800Y123286D01*
X257078Y123143D01*
X256466Y122734D01*
X256103Y122190D01*
X253084D01*
X252939Y122669D01*
X253534Y123066D01*
X253943Y123678D01*
X254086Y124400D01*
X253943Y125122D01*
X253534Y125734D01*
X252922Y126143D01*
X252200Y126286D01*
X251950Y126236D01*
X251370Y126816D01*
X251561Y127278D01*
X257435D01*
X260621Y124093D01*
D02*
G37*
G36*
X225644Y157983D02*
Y153082D01*
X232356D01*
Y155003D01*
X235679D01*
Y152313D01*
X235263Y152035D01*
X235065Y152117D01*
X234936D01*
X234817Y152166D01*
X234697Y152117D01*
X234568D01*
X234477Y152025D01*
X234358Y151976D01*
X232531Y150149D01*
X215024D01*
X214756Y150038D01*
X214624Y150126D01*
Y150126D01*
X203976D01*
Y143020D01*
X214624D01*
Y143020D01*
X214713Y143080D01*
X215024Y142951D01*
X225469D01*
Y142472D01*
X225469D01*
Y141221D01*
X196384D01*
X196193Y141852D01*
X195754Y142674D01*
X195934Y143140D01*
X196219Y143242D01*
X196326Y143339D01*
X196459Y143395D01*
X196503Y143500D01*
X196587Y143576D01*
X196594Y143720D01*
X196649Y143854D01*
Y150531D01*
X204369Y158251D01*
X225244D01*
X225644Y157983D01*
D02*
G37*
G36*
X254300Y150282D02*
X256211D01*
X256468Y149853D01*
X256230Y149407D01*
X255887Y148276D01*
X255870Y148100D01*
X261800D01*
Y146100D01*
X255870D01*
X255887Y145924D01*
X256230Y144793D01*
X256787Y143751D01*
X257537Y142837D01*
X258451Y142087D01*
X259493Y141530D01*
X259678Y141474D01*
X259778Y140984D01*
X257400Y139000D01*
X248200D01*
Y139281D01*
X248200Y139281D01*
X248200Y139281D01*
X248171Y139200D01*
X244800D01*
X244700Y139281D01*
X240100Y143028D01*
Y145565D01*
X240200D01*
Y150798D01*
X242200D01*
Y145565D01*
X243381D01*
Y145965D01*
X245093D01*
X245900Y145308D01*
X248200D01*
Y145173D01*
X250500Y147091D01*
Y150282D01*
X252300D01*
Y153447D01*
X254300D01*
Y150282D01*
D02*
G37*
G36*
X235279Y151326D02*
Y145565D01*
X237112D01*
X237303Y145103D01*
X236200Y144000D01*
X235800Y143600D01*
X215024D01*
Y145573D01*
X209300D01*
Y147573D01*
X215024D01*
Y149500D01*
X232800D01*
X234817Y151517D01*
X235279Y151326D01*
D02*
G37*
G36*
X258953Y169728D02*
X259872D01*
X260200Y169400D01*
X262228Y167372D01*
Y166247D01*
X265000D01*
Y165247D01*
X266000D01*
Y162869D01*
X267000D01*
Y161500D01*
X266900Y161400D01*
X262900Y157400D01*
X257056D01*
Y158353D01*
X253300D01*
Y159353D01*
X252300D01*
Y162518D01*
X251091D01*
X250742Y162876D01*
X250800Y165100D01*
X255471Y169771D01*
X255575Y169728D01*
Y169728D01*
X255575Y169728D01*
X256953D01*
Y172500D01*
X258953D01*
Y169728D01*
D02*
G37*
G36*
X343658Y178578D02*
X345513Y178015D01*
X347223Y177101D01*
X348722Y175871D01*
X349952Y174373D01*
X350866Y172663D01*
X351429Y170807D01*
X351614Y168925D01*
X351571Y168878D01*
X351571D01*
X351571Y168878D01*
Y109823D01*
X351571D01*
X351614Y109776D01*
X351429Y107893D01*
X350866Y106038D01*
X349952Y104328D01*
X348722Y102829D01*
X347223Y101600D01*
X345513Y100686D01*
X343658Y100123D01*
X341801Y99940D01*
X341728Y99980D01*
X341728D01*
D01*
D01*
X341728Y99980D01*
X219305Y99966D01*
X219114Y100428D01*
X220165Y101478D01*
X272900D01*
X272900Y101478D01*
X273329Y101564D01*
X273693Y101807D01*
X274165Y102278D01*
X306222D01*
X306222Y102278D01*
X306651Y102364D01*
X307015Y102607D01*
X309688Y105280D01*
X310382Y104993D01*
X311322Y104869D01*
X312262Y104993D01*
X313138Y105355D01*
X313890Y105932D01*
X314467Y106684D01*
X314829Y107560D01*
X314953Y108500D01*
X314829Y109440D01*
X314467Y110315D01*
X313890Y111067D01*
X313138Y111644D01*
X312262Y112007D01*
X311322Y112131D01*
X310382Y112007D01*
X309507Y111644D01*
X308754Y111067D01*
X308177Y110315D01*
X307815Y109440D01*
X307691Y108500D01*
X307815Y107560D01*
X308102Y106866D01*
X305758Y104522D01*
X304532D01*
X304435Y105012D01*
X305264Y105355D01*
X306016Y105932D01*
X306593Y106684D01*
X306955Y107560D01*
X307079Y108500D01*
X306955Y109440D01*
X306593Y110315D01*
X306016Y111067D01*
X305264Y111644D01*
X304388Y112007D01*
X303917Y112069D01*
X294493Y121493D01*
X294129Y121736D01*
X293700Y121822D01*
X293700Y121822D01*
X270065D01*
X269220Y122666D01*
X269247Y122733D01*
Y125900D01*
X270247D01*
Y126900D01*
X272625D01*
Y128672D01*
X272625D01*
Y130300D01*
X270247D01*
Y132300D01*
X272625D01*
Y134044D01*
X273104Y134189D01*
X273178Y134078D01*
X273922Y133581D01*
X274175Y133530D01*
Y128928D01*
X278131D01*
Y130178D01*
X303835D01*
X319014Y115000D01*
X318964Y114750D01*
X319107Y114028D01*
X319516Y113416D01*
X320128Y113007D01*
X320850Y112864D01*
X321100Y112914D01*
X323859Y110155D01*
X323563Y109440D01*
X323439Y108500D01*
X323563Y107560D01*
X323925Y106684D01*
X324502Y105932D01*
X325255Y105355D01*
X326130Y104993D01*
X327070Y104869D01*
X328010Y104993D01*
X328886Y105355D01*
X329638Y105932D01*
X330215Y106684D01*
X330577Y107560D01*
X330701Y108500D01*
X330577Y109440D01*
X330215Y110315D01*
X329638Y111067D01*
X328886Y111644D01*
X328010Y112007D01*
X327070Y112131D01*
X326130Y112007D01*
X325458Y111729D01*
X322687Y114500D01*
X322736Y114750D01*
X322593Y115472D01*
X322184Y116084D01*
X321572Y116493D01*
X320850Y116636D01*
X320600Y116586D01*
X305093Y132093D01*
X304729Y132336D01*
X304300Y132422D01*
X304300Y132422D01*
X278131D01*
Y133672D01*
X276681D01*
X276445Y134113D01*
X276838Y134700D01*
X274800D01*
Y136700D01*
X276838D01*
X276479Y137238D01*
X276714Y137678D01*
X304179D01*
X331724Y110134D01*
X331437Y109440D01*
X331313Y108500D01*
X331437Y107560D01*
X331800Y106684D01*
X332377Y105932D01*
X333128Y105355D01*
X334004Y104993D01*
X334944Y104869D01*
X335884Y104993D01*
X336760Y105355D01*
X337512Y105932D01*
X338089Y106684D01*
X338451Y107560D01*
X338575Y108500D01*
X338451Y109440D01*
X338089Y110315D01*
X337512Y111067D01*
X336760Y111644D01*
X335884Y112007D01*
X334944Y112131D01*
X334004Y112007D01*
X333310Y111720D01*
X305437Y139593D01*
X305073Y139836D01*
X304644Y139922D01*
X304644Y139922D01*
X272961D01*
X272770Y140384D01*
X274165Y141778D01*
X307953D01*
X339598Y110134D01*
X339311Y109440D01*
X339187Y108500D01*
X339311Y107560D01*
X339673Y106684D01*
X340250Y105932D01*
X341002Y105355D01*
X341878Y104993D01*
X342818Y104869D01*
X343758Y104993D01*
X344634Y105355D01*
X345386Y105932D01*
X345963Y106684D01*
X346325Y107560D01*
X346449Y108500D01*
X346325Y109440D01*
X345963Y110315D01*
X345386Y111067D01*
X344634Y111644D01*
X343758Y112007D01*
X342818Y112131D01*
X341878Y112007D01*
X341184Y111720D01*
X309211Y143693D01*
X308847Y143936D01*
X308418Y144022D01*
X308418Y144022D01*
X274798D01*
X274607Y144483D01*
X278146Y148022D01*
X278146Y148022D01*
X278389Y148386D01*
X278389Y148386D01*
X278389Y148386D01*
X278474Y148816D01*
X278474Y148816D01*
Y154428D01*
X279331D01*
Y155678D01*
X328118D01*
X328118Y155678D01*
X328547Y155764D01*
X328911Y156007D01*
X340804Y167900D01*
X346418D01*
Y175100D01*
X339218D01*
Y169486D01*
X327654Y157922D01*
X279331D01*
Y159172D01*
X275521D01*
Y159828D01*
X279331D01*
Y161078D01*
X317770D01*
X317770Y161078D01*
X318199Y161164D01*
X318563Y161407D01*
X325436Y168280D01*
X326130Y167993D01*
X327070Y167869D01*
X328010Y167993D01*
X328886Y168355D01*
X329638Y168932D01*
X330215Y169684D01*
X330577Y170560D01*
X330701Y171500D01*
X330577Y172440D01*
X330215Y173315D01*
X329638Y174067D01*
X328886Y174644D01*
X328010Y175007D01*
X327070Y175131D01*
X326130Y175007D01*
X325255Y174644D01*
X324502Y174067D01*
X323925Y173315D01*
X323563Y172440D01*
X323439Y171500D01*
X323563Y170560D01*
X323850Y169866D01*
X317306Y163321D01*
X279331D01*
Y164572D01*
X275911D01*
X275720Y165034D01*
X276265Y165578D01*
X314396D01*
X314396Y165578D01*
X314825Y165664D01*
X315189Y165907D01*
X317562Y168280D01*
X318256Y167993D01*
X319196Y167869D01*
X320136Y167993D01*
X321012Y168355D01*
X321764Y168932D01*
X322341Y169684D01*
X322703Y170560D01*
X322827Y171500D01*
X322703Y172440D01*
X322341Y173315D01*
X321764Y174067D01*
X321012Y174644D01*
X320136Y175007D01*
X319196Y175131D01*
X318256Y175007D01*
X317380Y174644D01*
X316629Y174067D01*
X316052Y173315D01*
X315689Y172440D01*
X315565Y171500D01*
X315689Y170560D01*
X315976Y169866D01*
X313932Y167822D01*
X313130D01*
X313033Y168312D01*
X313138Y168355D01*
X313890Y168932D01*
X314467Y169684D01*
X314829Y170560D01*
X314953Y171500D01*
X314829Y172440D01*
X314467Y173315D01*
X313890Y174067D01*
X313138Y174644D01*
X312262Y175007D01*
X311322Y175131D01*
X310382Y175007D01*
X309507Y174644D01*
X308754Y174067D01*
X308177Y173315D01*
X307815Y172440D01*
X307691Y171500D01*
X307815Y170560D01*
X308177Y169684D01*
X308754Y168932D01*
X309507Y168355D01*
X309611Y168312D01*
X309514Y167822D01*
X305256D01*
X305159Y168312D01*
X305264Y168355D01*
X306016Y168932D01*
X306593Y169684D01*
X306955Y170560D01*
X307079Y171500D01*
X306955Y172440D01*
X306593Y173315D01*
X306016Y174067D01*
X305264Y174644D01*
X304388Y175007D01*
X303448Y175131D01*
X302508Y175007D01*
X301632Y174644D01*
X300881Y174067D01*
X300304Y173315D01*
X299941Y172440D01*
X299817Y171500D01*
X299941Y170560D01*
X300304Y169684D01*
X300881Y168932D01*
X301632Y168355D01*
X301737Y168312D01*
X301640Y167822D01*
X297382D01*
X297285Y168312D01*
X297390Y168355D01*
X298142Y168932D01*
X298719Y169684D01*
X299081Y170560D01*
X299205Y171500D01*
X299081Y172440D01*
X298719Y173315D01*
X298142Y174067D01*
X297390Y174644D01*
X296514Y175007D01*
X295574Y175131D01*
X294634Y175007D01*
X293759Y174644D01*
X293006Y174067D01*
X292429Y173315D01*
X292140Y172616D01*
X291597Y172544D01*
X291194Y173517D01*
X290553Y174353D01*
X289717Y174994D01*
X289007Y175288D01*
X289105Y175778D01*
X329079D01*
X331724Y173134D01*
X331437Y172440D01*
X331313Y171500D01*
X331437Y170560D01*
X331800Y169684D01*
X332377Y168932D01*
X333128Y168355D01*
X334004Y167993D01*
X334944Y167869D01*
X335884Y167993D01*
X336760Y168355D01*
X337512Y168932D01*
X338089Y169684D01*
X338451Y170560D01*
X338575Y171500D01*
X338451Y172440D01*
X338089Y173315D01*
X337512Y174067D01*
X336760Y174644D01*
X335884Y175007D01*
X334944Y175131D01*
X334004Y175007D01*
X333310Y174720D01*
X330337Y177693D01*
X329973Y177936D01*
X329544Y178022D01*
X329544Y178022D01*
X193500D01*
X193071Y177936D01*
X192707Y177693D01*
X192707Y177693D01*
X187186Y172172D01*
X184875D01*
Y170214D01*
X183387Y168726D01*
X182925Y168918D01*
Y172172D01*
X178969D01*
Y171888D01*
X178583Y171570D01*
X178000Y171686D01*
X177278Y171543D01*
X176666Y171134D01*
X176653Y171114D01*
X176174Y171259D01*
Y173328D01*
X177031D01*
Y178072D01*
X173075D01*
Y173328D01*
X173931D01*
Y163541D01*
X169324D01*
X169258Y163868D01*
X168995Y164262D01*
X168688Y164468D01*
X168833Y164946D01*
X169909D01*
X170373Y165038D01*
X170767Y165302D01*
X171030Y165695D01*
X171123Y166160D01*
X171030Y166624D01*
X170767Y167018D01*
X170373Y167281D01*
X169909Y167374D01*
X169550D01*
X169314Y167815D01*
X169635Y168295D01*
X169756Y168900D01*
X168137D01*
Y170900D01*
X169756D01*
X169635Y171505D01*
X169284Y172031D01*
X168758Y172382D01*
X168515Y172431D01*
X168564Y172928D01*
X171525D01*
Y174700D01*
X166769D01*
Y172928D01*
X167710D01*
X167759Y172431D01*
X167516Y172382D01*
X167153Y172140D01*
X166789Y172382D01*
X166169Y172506D01*
X165670Y172407D01*
X165254Y172685D01*
X165236Y172773D01*
X164993Y173137D01*
X164993Y173137D01*
X164177Y173953D01*
X163813Y174196D01*
X163384Y174281D01*
X163384Y174281D01*
X159304D01*
X159162Y174494D01*
X158550Y174902D01*
X157828Y175046D01*
X157107Y174902D01*
X156495Y174494D01*
X156086Y173882D01*
X155942Y173160D01*
X155992Y172909D01*
X155173Y172090D01*
X152213D01*
Y167741D01*
X156956D01*
Y170701D01*
X157578Y171323D01*
X157828Y171274D01*
X158550Y171417D01*
X159162Y171826D01*
X159304Y172038D01*
X160559D01*
X160795Y171597D01*
X160733Y171505D01*
X160613Y170900D01*
X162232D01*
Y168900D01*
X160613D01*
X160733Y168295D01*
X161054Y167815D01*
X160819Y167374D01*
X160460D01*
X159995Y167281D01*
X159602Y167018D01*
X159338Y166624D01*
X159246Y166160D01*
X159338Y165695D01*
X159602Y165302D01*
X159995Y165038D01*
X160460Y164946D01*
X161535D01*
X161680Y164468D01*
X161373Y164262D01*
X161110Y163868D01*
X161018Y163404D01*
Y161435D01*
X161110Y160971D01*
Y159396D01*
X160407Y158693D01*
X160164Y158329D01*
X160078Y157900D01*
X160078Y157900D01*
Y121865D01*
X158763Y120549D01*
X158301Y120740D01*
Y127202D01*
X151983D01*
Y119899D01*
X157460D01*
X157651Y119437D01*
X156634Y118420D01*
X156300Y118486D01*
X155578Y118343D01*
X154966Y117934D01*
X154557Y117322D01*
X154414Y116600D01*
X154480Y116266D01*
X153435Y115222D01*
X150042D01*
Y135700D01*
X150043Y135700D01*
Y170768D01*
X150043Y170768D01*
X150043D01*
X150039Y170772D01*
X150147Y171871D01*
X150634Y173477D01*
X151425Y174957D01*
X152490Y176254D01*
X153787Y177319D01*
X155267Y178110D01*
X156873Y178597D01*
X158463Y178754D01*
X158500Y178720D01*
Y178720D01*
X158500Y178721D01*
X166769D01*
Y178721D01*
Y178472D01*
X166769Y178367D01*
X166769Y178367D01*
X166769D01*
Y176700D01*
X171525D01*
Y178367D01*
X171525Y178367D01*
D01*
D01*
X171525Y178472D01*
D01*
X171774Y178721D01*
X341728D01*
Y178721D01*
X341776Y178763D01*
X343658Y178578D01*
D02*
G37*
G36*
X218962Y116660D02*
X218962Y116660D01*
X219326Y116417D01*
X219326Y116417D01*
X219326Y116417D01*
D01*
X219326Y116417D01*
X219326Y116417D01*
X219529Y116376D01*
Y115722D01*
X218700D01*
X218271Y115636D01*
X217907Y115393D01*
X217907Y115393D01*
X212957Y110443D01*
X212713Y110079D01*
X212628Y109650D01*
X212628Y109650D01*
Y107701D01*
X210098D01*
Y101922D01*
X208865D01*
X207222Y103565D01*
Y115344D01*
X210977Y119099D01*
X216523D01*
X218962Y116660D01*
D02*
G37*
G36*
X237303Y168697D02*
X237112Y168235D01*
X235279D01*
Y164002D01*
X237460D01*
Y162002D01*
X235279D01*
Y158900D01*
X232756D01*
Y160753D01*
X225244D01*
Y158900D01*
X204100D01*
X204000Y158800D01*
X196000Y150800D01*
Y143854D01*
X195529Y143685D01*
X195060Y144257D01*
X194009Y145120D01*
X192809Y145761D01*
X191507Y146156D01*
X191154Y146191D01*
Y139350D01*
X189154D01*
Y146191D01*
X188800Y146156D01*
X187498Y145761D01*
X186299Y145120D01*
X185247Y144257D01*
X184771Y143677D01*
X184300Y143845D01*
Y157400D01*
X186700Y159800D01*
X188828Y161928D01*
X189231D01*
Y162331D01*
X197800Y170900D01*
X203576D01*
Y169227D01*
X215024D01*
Y170900D01*
X235100D01*
X237303Y168697D01*
D02*
G37*
G36*
X286393Y175288D02*
X285683Y174994D01*
X284847Y174353D01*
X284206Y173517D01*
X283803Y172544D01*
X283797Y172500D01*
X287700D01*
Y170500D01*
X283797D01*
X283803Y170456D01*
X284206Y169483D01*
X284847Y168647D01*
X285306Y168295D01*
X285145Y167822D01*
X275800D01*
X275800Y167822D01*
X275371Y167736D01*
X275007Y167493D01*
X275007Y167493D01*
X273607Y166093D01*
X273364Y165729D01*
X273278Y165300D01*
X272447Y165134D01*
Y162200D01*
X271447D01*
Y161200D01*
X269069D01*
Y159428D01*
Y157800D01*
X271447D01*
Y155800D01*
X269069D01*
Y154028D01*
X273278D01*
Y148590D01*
X262210Y137522D01*
X235331D01*
Y137522D01*
Y137728D01*
X235331Y137875D01*
X235331Y137875D01*
X235331D01*
Y138868D01*
X235353Y138978D01*
X235782Y139064D01*
X236076Y139260D01*
X236476Y138993D01*
X237100Y138869D01*
X237724Y138993D01*
X238253Y139347D01*
X238607Y139876D01*
X238731Y140500D01*
X238607Y141124D01*
X238253Y141654D01*
X237724Y142007D01*
X237100Y142131D01*
X236476Y142007D01*
X235946Y141654D01*
X235759Y141622D01*
X235753D01*
X235753Y141622D01*
X235717Y141614D01*
X235717Y141614D01*
X235331Y141932D01*
Y142472D01*
X235331D01*
Y142597D01*
X235684Y142951D01*
X235800D01*
X236259Y143141D01*
X236659Y143541D01*
X237763Y144644D01*
X237812Y144764D01*
X237903Y144855D01*
Y144984D01*
X237953Y145103D01*
X237903Y145223D01*
Y145352D01*
X237822Y145550D01*
X238099Y145965D01*
X238485D01*
X239451Y145565D01*
Y143028D01*
X239464Y142995D01*
X239454Y142962D01*
X239557Y142770D01*
X239641Y142569D01*
X239673Y142555D01*
X239690Y142524D01*
X244290Y138778D01*
X244290D01*
Y138778D01*
X244390Y138696D01*
X244599Y138634D01*
X244800Y138551D01*
X247737D01*
X247741Y138541D01*
X248200Y138351D01*
X257400D01*
X257605Y138435D01*
X257816Y138501D01*
X260194Y140485D01*
X260239Y140571D01*
X260319Y140625D01*
X260350Y140783D01*
X260425Y140925D01*
X260396Y141018D01*
X260414Y141113D01*
X260391Y141227D01*
X260732Y141592D01*
X261800Y141452D01*
X263262Y141644D01*
X264624Y142208D01*
X265794Y143106D01*
X266692Y144276D01*
X267256Y145638D01*
X267448Y147100D01*
X267256Y148562D01*
X266692Y149924D01*
X265794Y151094D01*
X264624Y151992D01*
X263262Y152556D01*
X261800Y152748D01*
X260338Y152556D01*
X258976Y151992D01*
X257806Y151094D01*
X257333Y150478D01*
X256834Y150506D01*
X256768Y150616D01*
X256702Y150665D01*
X256670Y150741D01*
X256656Y150747D01*
Y156213D01*
X256656D01*
Y156587D01*
D01*
X257056Y156751D01*
D01*
X262900D01*
X263225Y156885D01*
X263359Y156941D01*
X267359Y160941D01*
X267459Y161041D01*
X267649Y161500D01*
Y162869D01*
X267459Y163329D01*
X267372Y163365D01*
Y167225D01*
X262878D01*
Y167372D01*
X262688Y167831D01*
X262206Y168313D01*
X262266Y168459D01*
D01*
X262397Y168775D01*
X264000D01*
Y170153D01*
X262228D01*
Y168943D01*
X261913Y168813D01*
X261913D01*
X261766Y168752D01*
X260659Y169859D01*
X260331Y170188D01*
X259931Y170353D01*
Y174872D01*
X255975D01*
Y170662D01*
X255559Y170384D01*
X255471Y170421D01*
X255352Y170371D01*
X255223D01*
X255131Y170280D01*
X255012Y170230D01*
X250341Y165559D01*
X250249Y165337D01*
X250151Y165117D01*
X250093Y162893D01*
X250095Y162889D01*
X250093Y162885D01*
X250184Y162657D01*
X250232Y162530D01*
X249949Y162118D01*
X249944D01*
Y160863D01*
X249928Y160860D01*
X249399Y160506D01*
X247524Y158631D01*
X246721D01*
Y163197D01*
X250393Y166869D01*
X250393Y166869D01*
X250636Y167233D01*
X250636Y167233D01*
X250636Y167233D01*
X250722Y167662D01*
X250722Y167662D01*
Y170128D01*
X254025D01*
Y174872D01*
X250069D01*
Y173621D01*
X249031D01*
Y174972D01*
X245075D01*
Y170228D01*
X248479D01*
Y168127D01*
X247183Y166832D01*
X246721Y167023D01*
Y167835D01*
X243159D01*
D01*
D01*
X243159Y167835D01*
X242981D01*
Y167835D01*
X239419D01*
D01*
D01*
X239419Y167835D01*
X239241D01*
Y167835D01*
X238099D01*
X237822Y168250D01*
X237903Y168448D01*
Y168577D01*
X237953Y168697D01*
X237903Y168816D01*
Y168945D01*
X237812Y169036D01*
X237763Y169156D01*
X236360Y170559D01*
X236596Y171000D01*
X236800Y170959D01*
X237619Y171122D01*
X238314Y171586D01*
X238369Y171669D01*
X239169D01*
Y170228D01*
X243125D01*
Y174972D01*
X239169D01*
Y174931D01*
X237839D01*
X237619Y175078D01*
X236800Y175241D01*
X235981Y175078D01*
X235286Y174614D01*
X234822Y173919D01*
X234659Y173100D01*
X234822Y172281D01*
X235016Y171990D01*
X234780Y171549D01*
X215024D01*
X214990Y171535D01*
X214624Y171780D01*
Y171780D01*
X203976D01*
Y171780D01*
X203610Y171535D01*
X203576Y171549D01*
X197800D01*
X197475Y171415D01*
X197341Y171359D01*
X191803Y165822D01*
X188831D01*
Y167072D01*
D01*
Y167072D01*
X188831Y167072D01*
X188831Y167428D01*
X188831D01*
Y170645D01*
X193965Y175778D01*
X286295D01*
X286393Y175288D01*
D02*
G37*
G36*
X176666Y168466D02*
X177278Y168057D01*
X178000Y167914D01*
X178583Y168030D01*
X178969Y167712D01*
Y167428D01*
D01*
D01*
X178969Y167428D01*
X178969Y167072D01*
X178969D01*
Y162328D01*
X182925D01*
Y165092D01*
X184413Y166579D01*
X184875Y166388D01*
Y162328D01*
X187657D01*
X187848Y161866D01*
X186241Y160259D01*
X186241Y160259D01*
X183841Y157859D01*
X183651Y157400D01*
Y156289D01*
X183189Y156097D01*
X176174Y163112D01*
Y168341D01*
X176653Y168486D01*
X176666Y168466D01*
D02*
G37*
G36*
X225469Y137728D02*
D01*
Y137728D01*
X225262Y137522D01*
X197700D01*
X197700Y137522D01*
X197271Y137436D01*
X196907Y137193D01*
X196907Y137193D01*
X196759Y137046D01*
X196331Y137303D01*
X196565Y138075D01*
X196654Y138978D01*
X225469D01*
Y137728D01*
D02*
G37*
%LPC*%
G36*
X272625Y124900D02*
X271247D01*
Y123128D01*
X272625D01*
Y124900D01*
D02*
G37*
G36*
X339642Y145887D02*
X338367Y145762D01*
X337140Y145390D01*
X336010Y144786D01*
X335019Y143973D01*
X334207Y142982D01*
X333602Y141852D01*
X333230Y140626D01*
X333105Y139350D01*
X333230Y138075D01*
X333602Y136849D01*
X334207Y135719D01*
X335019Y134728D01*
X336010Y133915D01*
X337140Y133311D01*
X338367Y132939D01*
X339642Y132813D01*
X340917Y132939D01*
X342143Y133311D01*
X343274Y133915D01*
X344264Y134728D01*
X345077Y135719D01*
X345681Y136849D01*
X346053Y138075D01*
X346179Y139350D01*
X346053Y140626D01*
X345681Y141852D01*
X345077Y142982D01*
X344264Y143973D01*
X343274Y144786D01*
X342143Y145390D01*
X340917Y145762D01*
X339642Y145887D01*
D02*
G37*
G36*
X234438Y105800D02*
X230362D01*
X230778Y105178D01*
X231522Y104681D01*
X232400Y104506D01*
X233278Y104681D01*
X234022Y105178D01*
X234438Y105800D01*
D02*
G37*
G36*
X278131Y128272D02*
X274175D01*
Y123528D01*
X278131D01*
Y124778D01*
X301331D01*
X308360Y117750D01*
X308310Y117500D01*
X308453Y116778D01*
X308862Y116166D01*
X309474Y115757D01*
X310196Y115614D01*
X310446Y115664D01*
X315976Y110134D01*
X315689Y109440D01*
X315565Y108500D01*
X315689Y107560D01*
X316052Y106684D01*
X316629Y105932D01*
X317380Y105355D01*
X318256Y104993D01*
X319196Y104869D01*
X320136Y104993D01*
X321012Y105355D01*
X321764Y105932D01*
X322341Y106684D01*
X322703Y107560D01*
X322827Y108500D01*
X322703Y109440D01*
X322341Y110315D01*
X321764Y111067D01*
X321012Y111644D01*
X320136Y112007D01*
X319196Y112131D01*
X318256Y112007D01*
X317562Y111720D01*
X312032Y117250D01*
X312082Y117500D01*
X311939Y118222D01*
X311530Y118834D01*
X310918Y119243D01*
X310196Y119386D01*
X309946Y119336D01*
X302589Y126693D01*
X302225Y126936D01*
X301796Y127022D01*
X301796Y127022D01*
X278131D01*
Y128272D01*
D02*
G37*
G36*
X242944Y106200D02*
X241369D01*
Y104428D01*
X242944D01*
Y106200D01*
D02*
G37*
G36*
X246519D02*
X244944D01*
Y104428D01*
X246519D01*
Y106200D01*
D02*
G37*
G36*
X230972Y110644D02*
X229200D01*
Y109069D01*
X230885D01*
D01*
X230885Y109069D01*
X230889Y109057D01*
X230889Y109057D01*
X231007Y108669D01*
X231030Y108591D01*
X230778Y108422D01*
X230362Y107800D01*
X231400D01*
Y108853D01*
X230972Y109082D01*
Y110644D01*
D02*
G37*
G36*
X246519Y109972D02*
X244944D01*
Y108200D01*
X246519D01*
Y109972D01*
D02*
G37*
G36*
X220900Y110547D02*
X219128D01*
Y109169D01*
X220900D01*
Y110547D01*
D02*
G37*
G36*
X233400Y108838D02*
Y107800D01*
X234438D01*
X234022Y108422D01*
X233400Y108838D01*
D02*
G37*
G36*
X242944Y109972D02*
X241369D01*
Y108200D01*
X242944D01*
Y109972D01*
D02*
G37*
G36*
X208300Y167227D02*
X203576D01*
Y164274D01*
X208300D01*
Y167227D01*
D02*
G37*
G36*
X215024D02*
X210300D01*
Y164274D01*
X215024D01*
Y167227D01*
D02*
G37*
G36*
X264000Y164247D02*
X262228D01*
Y162869D01*
X264000D01*
Y164247D01*
D02*
G37*
G36*
X270447Y164972D02*
X269069D01*
Y163200D01*
X270447D01*
Y164972D01*
D02*
G37*
G36*
X153584Y166979D02*
X151813D01*
Y165404D01*
X153584D01*
Y166979D01*
D02*
G37*
G36*
X264000Y173531D02*
X262228D01*
Y172153D01*
X264000D01*
Y173531D01*
D02*
G37*
G36*
X267772D02*
X266000D01*
Y172153D01*
X267772D01*
Y173531D01*
D02*
G37*
G36*
X157356Y166979D02*
X155584D01*
Y165404D01*
X157356D01*
Y166979D01*
D02*
G37*
G36*
X267772Y170153D02*
X266000D01*
Y168775D01*
X267772D01*
Y170153D01*
D02*
G37*
G36*
X232756Y164918D02*
X230000D01*
Y162753D01*
X232756D01*
Y164918D01*
D02*
G37*
G36*
X271938Y150000D02*
X270900D01*
Y148962D01*
X271522Y149378D01*
X271938Y150000D01*
D02*
G37*
G36*
X176017Y158501D02*
X169699D01*
Y151198D01*
X176017D01*
Y151427D01*
X176496Y151572D01*
X176566Y151466D01*
X177178Y151057D01*
X177900Y150914D01*
X178622Y151057D01*
X179234Y151466D01*
X179643Y152078D01*
X179786Y152800D01*
X179643Y153522D01*
X179234Y154134D01*
X178622Y154543D01*
X177900Y154686D01*
X177650Y154636D01*
X176644Y155643D01*
X176280Y155886D01*
X176017Y155938D01*
Y158501D01*
D02*
G37*
G36*
X158301D02*
X151983D01*
Y151198D01*
X154020D01*
Y146858D01*
X154020Y146858D01*
X154106Y146429D01*
X154106Y146429D01*
X154106Y146429D01*
X154178Y146321D01*
X154114Y146000D01*
X154257Y145278D01*
X154666Y144666D01*
X155278Y144257D01*
X156000Y144114D01*
X156722Y144257D01*
X157334Y144666D01*
X157743Y145278D01*
X157886Y146000D01*
X157743Y146722D01*
X157334Y147334D01*
X156722Y147743D01*
X156263Y147834D01*
Y151198D01*
X158301D01*
Y158501D01*
D02*
G37*
G36*
X268900Y150000D02*
X267862D01*
X268278Y149378D01*
X268900Y148962D01*
Y150000D01*
D02*
G37*
G36*
X269900Y153294D02*
X269022Y153120D01*
X268278Y152622D01*
X267862Y152000D01*
X271938D01*
X271522Y152622D01*
X270778Y153120D01*
X269900Y153294D01*
D02*
G37*
G36*
X157356Y163404D02*
X155584D01*
Y161829D01*
X157356D01*
Y163404D01*
D02*
G37*
G36*
X228000Y164918D02*
X225244D01*
Y162753D01*
X228000D01*
Y164918D01*
D02*
G37*
G36*
X257056Y162518D02*
X254300D01*
Y160353D01*
X257056D01*
Y162518D01*
D02*
G37*
G36*
X153584Y163404D02*
X151813D01*
Y161829D01*
X153584D01*
Y163404D01*
D02*
G37*
%LPD*%
D10*
X247053Y172600D02*
D03*
X241147D02*
D03*
X257953Y172500D02*
D03*
X252047D02*
D03*
X169147Y175700D02*
D03*
X175053D02*
D03*
X277353Y156800D02*
D03*
X271447D02*
D03*
X180947Y164700D02*
D03*
X186853D02*
D03*
X180947Y169800D02*
D03*
X186853D02*
D03*
X277353Y162200D02*
D03*
X271447D02*
D03*
X276153Y125900D02*
D03*
X270247D02*
D03*
X276153Y131300D02*
D03*
X270247D02*
D03*
X227447Y140100D02*
D03*
X233353D02*
D03*
D11*
X334944Y108500D02*
D03*
X342818D02*
D03*
X319196D02*
D03*
X311322D02*
D03*
X303448D02*
D03*
X295574D02*
D03*
X287700D02*
D03*
Y171500D02*
D03*
X295574D02*
D03*
X303448D02*
D03*
X311322D02*
D03*
X319196D02*
D03*
X327070D02*
D03*
X334944D02*
D03*
X327070Y108500D02*
D03*
D12*
X246709Y121069D02*
D03*
X235291Y115163D02*
D03*
Y117131D02*
D03*
Y119100D02*
D03*
Y121069D02*
D03*
Y123037D02*
D03*
X246709D02*
D03*
Y119100D02*
D03*
Y117131D02*
D03*
Y115163D02*
D03*
D13*
X342818Y171500D02*
D03*
D14*
X172858Y154850D02*
D03*
Y123550D02*
D03*
X155142Y154850D02*
D03*
Y123550D02*
D03*
D15*
X125000Y157500D02*
D03*
D16*
X119685Y153563D02*
D03*
Y157500D02*
D03*
Y161437D02*
D03*
X130315D02*
D03*
Y157500D02*
D03*
Y153563D02*
D03*
D17*
X154584Y169916D02*
D03*
Y164404D02*
D03*
X254500Y111544D02*
D03*
Y117056D02*
D03*
X228200Y117156D02*
D03*
Y111644D02*
D03*
X277100Y108544D02*
D03*
Y114056D02*
D03*
X271600Y108544D02*
D03*
Y114056D02*
D03*
D18*
X249456Y107200D02*
D03*
X243944D02*
D03*
X127756Y170600D02*
D03*
X122244D02*
D03*
D19*
X162232Y162420D02*
D03*
X164200D02*
D03*
X166169D02*
D03*
X168137D02*
D03*
Y169900D02*
D03*
X166169D02*
D03*
X164200D02*
D03*
X162232D02*
D03*
D20*
X168924Y166160D02*
D03*
X161444D02*
D03*
D21*
X213750Y104542D02*
D03*
X182450D02*
D03*
X213750Y122258D02*
D03*
X182450D02*
D03*
D22*
X262600Y115747D02*
D03*
Y121653D02*
D03*
X221900Y117453D02*
D03*
Y111547D02*
D03*
X265000Y171153D02*
D03*
Y165247D02*
D03*
D23*
X242969Y113391D02*
D03*
X241000D02*
D03*
X239032D02*
D03*
Y124809D02*
D03*
X241000D02*
D03*
X242969D02*
D03*
D24*
X229000Y155847D02*
D03*
Y161753D02*
D03*
X253300Y153447D02*
D03*
Y159353D02*
D03*
D25*
X237460Y150798D02*
D03*
X241200D02*
D03*
X244940D02*
D03*
Y163002D02*
D03*
X241200D02*
D03*
X237460D02*
D03*
D26*
X209300Y168227D02*
D03*
Y146573D02*
D03*
D27*
X130315Y153563D02*
X133100Y150778D01*
X125000Y157500D02*
X130315D01*
X190154Y139350D02*
X190903Y140100D01*
X175850Y154850D02*
X177900Y152800D01*
X172858Y154850D02*
X175850D01*
X175053Y175700D02*
Y176500D01*
Y162647D02*
Y175700D01*
X168137Y162420D02*
X174825D01*
X154584Y169916D02*
X157828Y173160D01*
X163384D01*
X164200Y172344D01*
Y169900D02*
Y172344D01*
X246709Y115163D02*
X251491D01*
X252273Y114381D02*
X257281D01*
X258400Y115500D01*
X251491Y115163D02*
X252273Y114381D01*
X258400Y115500D02*
Y117500D01*
X259700Y118800D01*
X264700D01*
X269444Y114056D01*
X271600D01*
X267600Y118700D02*
X290200D01*
X257900Y128400D02*
X267600Y118700D01*
X237100Y128400D02*
X257900D01*
X231044Y108800D02*
X232400Y107444D01*
Y106800D02*
Y107444D01*
X274647Y135700D02*
X274800D01*
X270247Y131300D02*
X274647Y135700D01*
X270247Y125900D02*
X270247Y125900D01*
X270247Y125900D02*
Y131300D01*
X276153Y125900D02*
X301796D01*
X310196Y117500D01*
X304300Y131300D02*
X320850Y114750D01*
X276153Y131300D02*
X304300D01*
X197700Y136400D02*
X262674D01*
X193200Y131900D02*
X197700Y136400D01*
X190903Y140100D02*
X227447D01*
X274400Y148126D02*
Y165300D01*
X260300Y130000D02*
X269600Y120700D01*
X235900Y130000D02*
X260300D01*
X230800Y124900D02*
X235900Y130000D01*
X235291Y126591D02*
X237100Y128400D01*
X271447Y156800D02*
Y162200D01*
X317770D02*
X327070Y171500D01*
X277353Y162200D02*
X317770D01*
X274400Y165300D02*
X275800Y166700D01*
X314396D01*
X319196Y171500D01*
X200100Y164700D02*
X200800Y165400D01*
X186853Y164700D02*
X200100D01*
X186047Y169800D02*
X186853D01*
X180947Y164700D02*
X186047Y169800D01*
X187400Y170800D02*
X193500Y176900D01*
X329544D01*
X334944Y171500D01*
X230800Y120700D02*
Y124900D01*
X241000Y119500D02*
Y124809D01*
X239432Y121069D02*
X241000Y119500D01*
X235291Y121069D02*
X239432D01*
X235291Y123037D02*
Y126591D01*
X250300Y126300D02*
X252200Y124400D01*
X245000Y126300D02*
X250300D01*
X243509Y124809D02*
X245000Y126300D01*
X233353Y140100D02*
X235353D01*
X235753Y140500D02*
X237000D01*
X235353Y140100D02*
X235753Y140500D01*
X225644Y114600D02*
X228200Y117156D01*
X218700Y114600D02*
X225644D01*
X213750Y109650D02*
X218700Y114600D01*
X213750Y105742D02*
Y109650D01*
X228103Y111547D02*
X228200Y111644D01*
X221900Y111547D02*
X228103D01*
X219755Y117453D02*
X221900D01*
X232400Y119100D02*
X235291D01*
X230800Y120700D02*
X232400Y119100D01*
X269600Y120700D02*
X293700D01*
X303448Y110952D01*
Y108500D02*
Y110952D01*
X310196Y117500D02*
X319196Y108500D01*
X295574D02*
Y113326D01*
X290200Y118700D02*
X295574Y113326D01*
X206100Y103100D02*
Y115809D01*
X273700Y103400D02*
X306222D01*
X311322Y108500D01*
X257469Y121069D02*
X257800Y121400D01*
X246709Y121069D02*
X257469D01*
X320850Y114750D02*
X327070Y108530D01*
Y108500D02*
Y108530D01*
X242969Y124809D02*
X243509D01*
X241100Y107200D02*
X243944D01*
X239500Y108800D02*
X241100Y107200D01*
X237963Y108800D02*
X239500D01*
X243944Y107800D02*
Y109544D01*
X246709Y112309D02*
Y115163D01*
X243944Y109544D02*
X246709Y112309D01*
X238632Y117131D02*
X241000Y119500D01*
X235291Y117131D02*
X238632D01*
X228200Y117156D02*
X235267D01*
X235291Y117131D01*
X237963Y108800D02*
X239032Y109869D01*
X231044Y108800D02*
X237963D01*
X228200Y111644D02*
X231044Y108800D01*
X239032Y109869D02*
Y113391D01*
X254424Y117131D02*
X254500Y117056D01*
X246709Y117131D02*
X254424D01*
X247253Y172500D02*
X251647D01*
X251747Y172400D01*
X249600D02*
X251747D01*
X249600Y167662D02*
Y172400D01*
X244940Y163002D02*
X249600Y167662D01*
X244940Y150798D02*
X246802D01*
X248500Y149100D01*
X271447Y162200D02*
Y171347D01*
X271600Y171500D01*
X193863Y130300D02*
X198363Y134800D01*
X263337D01*
X277353Y156800D02*
X328118D01*
X342818Y171500D01*
X304644Y138800D02*
X334944Y108500D01*
X264900Y131600D02*
X272100Y138800D01*
X304644D01*
X199025Y133200D02*
X264000D01*
X273700Y142900D01*
X308418D02*
X342818Y108500D01*
X273700Y142900D02*
X308418D01*
X206100Y103100D02*
X208400Y100800D01*
X217900D01*
X219700Y102600D01*
X272900D01*
X273700Y103400D01*
X263337Y134800D02*
X277353Y148816D01*
Y156800D01*
X262674Y136400D02*
X274400Y148126D01*
X271447Y152547D02*
Y156800D01*
X269900Y151000D02*
X271447Y152547D01*
X130315Y157500D02*
X131800D01*
X133000Y158700D01*
Y165356D01*
X194526Y128700D02*
X199025Y133200D01*
X199688Y131600D02*
X264900D01*
X195188Y127100D02*
X199688Y131600D01*
X174700Y146200D02*
X181000Y139900D01*
X175053Y162647D02*
X182600Y155100D01*
X186700Y131900D02*
X193200D01*
X181000Y135337D02*
Y139900D01*
X186037Y130300D02*
X193863D01*
X193000Y107900D02*
X207358Y122258D01*
X187059Y107900D02*
X193000D01*
X105500Y115000D02*
X112600D01*
X207358Y122258D02*
X212549D01*
X213750D01*
X206100Y115809D02*
X212549Y122258D01*
X213750Y123458D01*
X219755Y117453D01*
X101447Y150947D02*
X105500Y155000D01*
X101447Y142253D02*
Y150947D01*
X105500Y145000D02*
X118000Y157500D01*
X118100D01*
X119685D01*
X181000Y135337D02*
X186037Y130300D01*
X182600Y136000D02*
X186700Y131900D01*
X182600Y136000D02*
Y155100D01*
X101447Y142253D02*
X103900Y139800D01*
X179463Y128700D02*
X194526D01*
X180126Y127100D02*
X195188D01*
X178200Y125174D02*
X180126Y127100D01*
X176600Y125837D02*
X179463Y128700D01*
X174663Y129000D02*
X181000Y135337D01*
X167700Y126700D02*
X170000Y129000D01*
X174663D01*
X186259Y108700D02*
X187059Y107900D01*
X178299Y107499D02*
Y107556D01*
X179443Y108700D01*
X186259D01*
X173700Y102900D02*
X178299Y107499D01*
X117100Y158500D02*
X118100Y157500D01*
X117100Y158500D02*
Y165456D01*
X122244Y170600D01*
X169200Y104800D02*
X178200Y113800D01*
Y125174D01*
X164000Y106400D02*
X176600Y119000D01*
Y125837D01*
X105500Y130731D02*
Y135000D01*
X124700Y102900D02*
X173700D01*
X125100Y104800D02*
X169200D01*
X112600Y115000D02*
X124700Y102900D01*
X126000Y106400D02*
X164000D01*
X103900Y139800D02*
X109600D01*
X105500Y145000D02*
X107800D01*
X133100Y134800D02*
Y150778D01*
Y134800D02*
X135500D01*
X136400Y133900D01*
Y118100D02*
Y133900D01*
Y118100D02*
X140400Y114100D01*
X153900D01*
X161200Y121400D01*
X119685Y148715D02*
Y153563D01*
Y148715D02*
X128100Y140300D01*
Y134800D02*
Y137300D01*
Y140300D01*
X121200Y138500D02*
X126900D01*
X128100Y137300D01*
X155142Y146858D02*
Y154850D01*
Y146858D02*
X156000Y146000D01*
X161200Y121400D02*
Y157900D01*
X162232Y158932D01*
Y162420D01*
X164200Y157600D02*
Y162420D01*
X163800Y157200D02*
X164200Y157600D01*
X165500Y156400D02*
X166169Y157069D01*
Y162420D01*
X126700Y108500D02*
X162700D01*
X167700Y113500D01*
Y126700D01*
X130700Y110500D02*
X161300D01*
X165500Y114700D01*
Y156400D01*
X157800Y112500D02*
X163800Y118500D01*
Y157200D01*
X127756Y170600D02*
X133000Y165356D01*
X112050Y120350D02*
X126000Y106400D01*
X112050Y120350D02*
Y121673D01*
X109500Y123268D02*
X109553Y123321D01*
Y126679D01*
X105500Y130731D02*
X109553Y126679D01*
X111153Y122571D02*
X112050Y121673D01*
X111153Y122571D02*
Y130000D01*
X109500Y120400D02*
Y123268D01*
Y120400D02*
X125100Y104800D01*
X113700Y121500D02*
X126700Y108500D01*
X113700Y121500D02*
Y135700D01*
X109600Y139800D02*
X113700Y135700D01*
X115600Y125600D02*
X130700Y110500D01*
X115600Y125600D02*
Y137200D01*
X107800Y145000D02*
X115600Y137200D01*
X117700Y135000D02*
X121200Y138500D01*
X117700Y127000D02*
Y135000D01*
Y127000D02*
X132200Y112500D01*
X157800D01*
X119900Y131600D02*
X123100Y134800D01*
X119900Y127400D02*
Y131600D01*
Y127400D02*
X132000Y115300D01*
X134300D01*
X178000Y169800D02*
X180947D01*
X180947Y169800D01*
D28*
X239200Y156380D02*
X241200Y154380D01*
Y150798D02*
Y154380D01*
X229000Y155847D02*
X229533Y156380D01*
X239200D01*
D29*
X168137Y169900D02*
Y172713D01*
X169132Y173707D01*
Y175760D01*
X160080Y169900D02*
X162232D01*
X154584Y164404D02*
X160080Y169900D01*
X162232Y168607D02*
Y169900D01*
X162231Y168606D02*
X162232Y168607D01*
X162231Y168606D02*
X164931Y165907D01*
X166169Y164669D01*
X164931Y165907D02*
X166169Y167144D01*
Y169900D01*
X168137D01*
X166169Y162420D02*
Y164669D01*
X263700Y108700D02*
X267900D01*
X268000Y108600D01*
X265056Y111544D02*
X268000Y108600D01*
Y110347D01*
X262600Y115747D02*
X268000Y110347D01*
X254500Y111544D02*
X265056D01*
X250156Y107200D02*
X254500Y111544D01*
X249456Y107200D02*
X250156D01*
X241000Y119500D02*
X241400D01*
X244937Y123037D01*
X246709D01*
D30*
X248200Y157000D02*
X250553Y159353D01*
X242500Y157000D02*
X248200D01*
X241200Y158300D02*
X242500Y157000D01*
X241200Y158300D02*
Y163002D01*
X271600Y114056D02*
X277100D01*
X240447Y173300D02*
X241147Y172600D01*
X237500Y173300D02*
X240447D01*
X250553Y159353D02*
X253300D01*
X342818Y108500D02*
Y108682D01*
D31*
X268000Y108600D02*
X287600D01*
X287700Y171500D02*
X287700Y171500D01*
X287600Y108600D02*
X287700Y108500D01*
X265000Y171500D02*
X271600D01*
X287700D01*
D32*
X339642Y139350D02*
D03*
X190154D02*
D03*
D33*
X187811Y114272D02*
D03*
D34*
X105500Y115000D02*
D03*
D35*
Y125000D02*
D03*
Y135000D02*
D03*
Y145000D02*
D03*
Y155000D02*
D03*
Y165000D02*
D03*
D36*
X123100Y129800D02*
D03*
Y134800D02*
D03*
X128100Y129800D02*
D03*
Y134800D02*
D03*
X133100Y129800D02*
D03*
D37*
Y134800D02*
D03*
D38*
X274800Y135700D02*
D03*
X310196Y117500D02*
D03*
X320850Y114750D02*
D03*
X177900Y152800D02*
D03*
X232400Y106800D02*
D03*
X241000Y119500D02*
D03*
X252200Y124400D02*
D03*
X257800Y121400D02*
D03*
X269900Y151000D02*
D03*
X109700Y120700D02*
D03*
X124500Y116600D02*
D03*
X174700Y146200D02*
D03*
X156000Y146000D02*
D03*
X161850Y116650D02*
D03*
X156300Y116600D02*
D03*
X131800Y166700D02*
D03*
X111300Y130000D02*
D03*
X134400Y115300D02*
D03*
X157828Y173160D02*
D03*
X178000Y169800D02*
D03*
D39*
X261800Y147100D02*
D03*
X263700Y108700D02*
D03*
D40*
X236800Y173100D02*
D03*
D41*
X248600Y149100D02*
D03*
X237100Y140500D02*
D03*
M02*
